<mxfile host="Electron" agent="Mozilla/5.0 (Windows NT 10.0; Win64; x64) AppleWebKit/537.36 (KHTML, like Gecko) draw.io/28.0.6 Chrome/138.0.7204.100 Electron/37.2.3 Safari/537.36" version="28.0.6">
  <diagram id="7aIMBzcTmgZEg1J-gpTx" name="Page-1">
    <mxGraphModel dx="3640" dy="823" grid="1" gridSize="5" guides="1" tooltips="1" connect="1" arrows="1" fold="1" page="1" pageScale="1" pageWidth="850" pageHeight="1100" math="0" shadow="0">
      <root>
        <mxCell id="0" />
        <mxCell id="1" parent="0" />
        <mxCell id="UYK4BgsfnKAOdERZ14Jn-40" value="time" style="html=1;shadow=0;dashed=0;align=center;verticalAlign=middle;shape=mxgraph.arrows2.arrow;dy=0.6;dx=40;notch=0;fontFamily=Helvetica;fontSize=11;fontColor=default;labelBackgroundColor=default;" parent="1" vertex="1">
          <mxGeometry x="-2420" y="180" width="415" height="60" as="geometry" />
        </mxCell>
        <mxCell id="UYK4BgsfnKAOdERZ14Jn-6" value="system v1" style="rounded=1;whiteSpace=wrap;html=1;fillColor=none;verticalAlign=top;" parent="1" vertex="1">
          <mxGeometry x="-2420" y="40" width="100" height="120" as="geometry" />
        </mxCell>
        <mxCell id="UYK4BgsfnKAOdERZ14Jn-12" style="edgeStyle=orthogonalEdgeStyle;rounded=1;orthogonalLoop=1;jettySize=auto;html=1;exitX=1;exitY=0.5;exitDx=0;exitDy=0;entryX=0;entryY=0.5;entryDx=0;entryDy=0;curved=0;endArrow=none;startFill=0;" parent="1" source="UYK4BgsfnKAOdERZ14Jn-7" target="UYK4BgsfnKAOdERZ14Jn-9" edge="1">
          <mxGeometry relative="1" as="geometry" />
        </mxCell>
        <mxCell id="UYK4BgsfnKAOdERZ14Jn-7" value="1" style="ellipse;whiteSpace=wrap;html=1;aspect=fixed;shadow=0;" parent="1" vertex="1">
          <mxGeometry x="-2400" y="80" width="20" height="20" as="geometry" />
        </mxCell>
        <mxCell id="UYK4BgsfnKAOdERZ14Jn-13" style="edgeStyle=orthogonalEdgeStyle;shape=connector;curved=0;rounded=1;orthogonalLoop=1;jettySize=auto;html=1;exitX=0.5;exitY=1;exitDx=0;exitDy=0;entryX=0.5;entryY=0;entryDx=0;entryDy=0;strokeColor=default;align=center;verticalAlign=middle;fontFamily=Helvetica;fontSize=11;fontColor=default;labelBackgroundColor=default;startFill=0;endArrow=none;" parent="1" source="UYK4BgsfnKAOdERZ14Jn-9" target="UYK4BgsfnKAOdERZ14Jn-11" edge="1">
          <mxGeometry relative="1" as="geometry" />
        </mxCell>
        <mxCell id="UYK4BgsfnKAOdERZ14Jn-14" style="shape=connector;rounded=0;orthogonalLoop=1;jettySize=auto;html=1;exitX=0;exitY=1;exitDx=0;exitDy=0;entryX=1;entryY=0;entryDx=0;entryDy=0;strokeColor=default;align=center;verticalAlign=middle;fontFamily=Helvetica;fontSize=11;fontColor=default;labelBackgroundColor=default;startFill=0;endArrow=none;" parent="1" source="UYK4BgsfnKAOdERZ14Jn-9" target="UYK4BgsfnKAOdERZ14Jn-10" edge="1">
          <mxGeometry relative="1" as="geometry" />
        </mxCell>
        <mxCell id="UYK4BgsfnKAOdERZ14Jn-9" value="2" style="ellipse;whiteSpace=wrap;html=1;aspect=fixed;shadow=0;" parent="1" vertex="1">
          <mxGeometry x="-2360" y="80" width="20" height="20" as="geometry" />
        </mxCell>
        <mxCell id="UYK4BgsfnKAOdERZ14Jn-10" value="3" style="ellipse;whiteSpace=wrap;html=1;aspect=fixed;shadow=0;" parent="1" vertex="1">
          <mxGeometry x="-2400" y="120" width="20" height="20" as="geometry" />
        </mxCell>
        <mxCell id="UYK4BgsfnKAOdERZ14Jn-11" value="4" style="ellipse;whiteSpace=wrap;html=1;aspect=fixed;shadow=0;" parent="1" vertex="1">
          <mxGeometry x="-2360" y="120" width="20" height="20" as="geometry" />
        </mxCell>
        <mxCell id="UYK4BgsfnKAOdERZ14Jn-16" value="system v2" style="rounded=1;whiteSpace=wrap;html=1;fillColor=none;verticalAlign=top;" parent="1" vertex="1">
          <mxGeometry x="-2280" y="40" width="100" height="120" as="geometry" />
        </mxCell>
        <mxCell id="UYK4BgsfnKAOdERZ14Jn-17" style="edgeStyle=orthogonalEdgeStyle;rounded=1;orthogonalLoop=1;jettySize=auto;html=1;exitX=1;exitY=0.5;exitDx=0;exitDy=0;entryX=0;entryY=0.5;entryDx=0;entryDy=0;curved=0;endArrow=none;startFill=0;" parent="1" source="UYK4BgsfnKAOdERZ14Jn-18" target="UYK4BgsfnKAOdERZ14Jn-21" edge="1">
          <mxGeometry relative="1" as="geometry" />
        </mxCell>
        <mxCell id="UYK4BgsfnKAOdERZ14Jn-18" value="1" style="ellipse;whiteSpace=wrap;html=1;aspect=fixed;shadow=0;" parent="1" vertex="1">
          <mxGeometry x="-2260" y="80" width="20" height="20" as="geometry" />
        </mxCell>
        <mxCell id="UYK4BgsfnKAOdERZ14Jn-19" style="edgeStyle=orthogonalEdgeStyle;shape=connector;curved=0;rounded=1;orthogonalLoop=1;jettySize=auto;html=1;exitX=0.5;exitY=1;exitDx=0;exitDy=0;entryX=0.5;entryY=0;entryDx=0;entryDy=0;strokeColor=default;align=center;verticalAlign=middle;fontFamily=Helvetica;fontSize=11;fontColor=default;labelBackgroundColor=default;startFill=0;endArrow=none;" parent="1" source="UYK4BgsfnKAOdERZ14Jn-21" target="UYK4BgsfnKAOdERZ14Jn-23" edge="1">
          <mxGeometry relative="1" as="geometry" />
        </mxCell>
        <mxCell id="UYK4BgsfnKAOdERZ14Jn-20" style="shape=connector;rounded=0;orthogonalLoop=1;jettySize=auto;html=1;exitX=0;exitY=1;exitDx=0;exitDy=0;entryX=1;entryY=0;entryDx=0;entryDy=0;strokeColor=default;align=center;verticalAlign=middle;fontFamily=Helvetica;fontSize=11;fontColor=default;labelBackgroundColor=default;startFill=0;endArrow=none;" parent="1" source="UYK4BgsfnKAOdERZ14Jn-21" target="UYK4BgsfnKAOdERZ14Jn-22" edge="1">
          <mxGeometry relative="1" as="geometry" />
        </mxCell>
        <mxCell id="UYK4BgsfnKAOdERZ14Jn-21" value="2" style="ellipse;whiteSpace=wrap;html=1;aspect=fixed;shadow=0;" parent="1" vertex="1">
          <mxGeometry x="-2220" y="80" width="20" height="20" as="geometry" />
        </mxCell>
        <mxCell id="UYK4BgsfnKAOdERZ14Jn-24" style="edgeStyle=orthogonalEdgeStyle;shape=connector;curved=0;rounded=1;orthogonalLoop=1;jettySize=auto;html=1;exitX=1;exitY=0.5;exitDx=0;exitDy=0;entryX=0;entryY=0.5;entryDx=0;entryDy=0;strokeColor=default;align=center;verticalAlign=middle;fontFamily=Helvetica;fontSize=11;fontColor=default;labelBackgroundColor=default;startFill=0;endArrow=none;" parent="1" source="UYK4BgsfnKAOdERZ14Jn-22" target="UYK4BgsfnKAOdERZ14Jn-23" edge="1">
          <mxGeometry relative="1" as="geometry" />
        </mxCell>
        <mxCell id="UYK4BgsfnKAOdERZ14Jn-22" value="3" style="ellipse;whiteSpace=wrap;html=1;aspect=fixed;shadow=0;" parent="1" vertex="1">
          <mxGeometry x="-2260" y="120" width="20" height="20" as="geometry" />
        </mxCell>
        <mxCell id="UYK4BgsfnKAOdERZ14Jn-23" value="4" style="ellipse;whiteSpace=wrap;html=1;aspect=fixed;shadow=0;" parent="1" vertex="1">
          <mxGeometry x="-2220" y="120" width="20" height="20" as="geometry" />
        </mxCell>
        <mxCell id="UYK4BgsfnKAOdERZ14Jn-25" value="system v3" style="rounded=1;whiteSpace=wrap;html=1;fillColor=none;verticalAlign=top;arcSize=21;" parent="1" vertex="1">
          <mxGeometry x="-2140" y="40" width="140" height="120" as="geometry" />
        </mxCell>
        <mxCell id="UYK4BgsfnKAOdERZ14Jn-26" style="edgeStyle=orthogonalEdgeStyle;rounded=1;orthogonalLoop=1;jettySize=auto;html=1;exitX=1;exitY=0.5;exitDx=0;exitDy=0;entryX=0;entryY=0.5;entryDx=0;entryDy=0;curved=0;endArrow=none;startFill=0;" parent="1" source="UYK4BgsfnKAOdERZ14Jn-27" target="UYK4BgsfnKAOdERZ14Jn-30" edge="1">
          <mxGeometry relative="1" as="geometry" />
        </mxCell>
        <mxCell id="UYK4BgsfnKAOdERZ14Jn-27" value="1" style="ellipse;whiteSpace=wrap;html=1;aspect=fixed;shadow=0;" parent="1" vertex="1">
          <mxGeometry x="-2120" y="80" width="20" height="20" as="geometry" />
        </mxCell>
        <mxCell id="UYK4BgsfnKAOdERZ14Jn-28" style="edgeStyle=orthogonalEdgeStyle;shape=connector;curved=0;rounded=1;orthogonalLoop=1;jettySize=auto;html=1;exitX=0.5;exitY=1;exitDx=0;exitDy=0;entryX=0.5;entryY=0;entryDx=0;entryDy=0;strokeColor=default;align=center;verticalAlign=middle;fontFamily=Helvetica;fontSize=11;fontColor=default;labelBackgroundColor=default;startFill=0;endArrow=none;" parent="1" source="UYK4BgsfnKAOdERZ14Jn-30" target="UYK4BgsfnKAOdERZ14Jn-33" edge="1">
          <mxGeometry relative="1" as="geometry" />
        </mxCell>
        <mxCell id="UYK4BgsfnKAOdERZ14Jn-29" style="shape=connector;rounded=0;orthogonalLoop=1;jettySize=auto;html=1;exitX=0;exitY=1;exitDx=0;exitDy=0;entryX=1;entryY=0;entryDx=0;entryDy=0;strokeColor=default;align=center;verticalAlign=middle;fontFamily=Helvetica;fontSize=11;fontColor=default;labelBackgroundColor=default;startFill=0;endArrow=none;" parent="1" source="UYK4BgsfnKAOdERZ14Jn-30" target="UYK4BgsfnKAOdERZ14Jn-32" edge="1">
          <mxGeometry relative="1" as="geometry" />
        </mxCell>
        <mxCell id="UYK4BgsfnKAOdERZ14Jn-37" style="edgeStyle=orthogonalEdgeStyle;shape=connector;curved=0;rounded=1;orthogonalLoop=1;jettySize=auto;html=1;exitX=1;exitY=0.5;exitDx=0;exitDy=0;entryX=0.5;entryY=0;entryDx=0;entryDy=0;strokeColor=default;align=center;verticalAlign=middle;fontFamily=Helvetica;fontSize=11;fontColor=default;labelBackgroundColor=default;startFill=0;endArrow=none;" parent="1" source="UYK4BgsfnKAOdERZ14Jn-30" target="UYK4BgsfnKAOdERZ14Jn-34" edge="1">
          <mxGeometry relative="1" as="geometry" />
        </mxCell>
        <mxCell id="UYK4BgsfnKAOdERZ14Jn-30" value="2" style="ellipse;whiteSpace=wrap;html=1;aspect=fixed;shadow=0;" parent="1" vertex="1">
          <mxGeometry x="-2080" y="80" width="20" height="20" as="geometry" />
        </mxCell>
        <mxCell id="UYK4BgsfnKAOdERZ14Jn-31" style="edgeStyle=orthogonalEdgeStyle;shape=connector;curved=0;rounded=1;orthogonalLoop=1;jettySize=auto;html=1;exitX=1;exitY=0.5;exitDx=0;exitDy=0;entryX=0;entryY=0.5;entryDx=0;entryDy=0;strokeColor=default;align=center;verticalAlign=middle;fontFamily=Helvetica;fontSize=11;fontColor=default;labelBackgroundColor=default;startFill=0;endArrow=none;" parent="1" source="UYK4BgsfnKAOdERZ14Jn-32" target="UYK4BgsfnKAOdERZ14Jn-33" edge="1">
          <mxGeometry relative="1" as="geometry" />
        </mxCell>
        <mxCell id="UYK4BgsfnKAOdERZ14Jn-32" value="3" style="ellipse;whiteSpace=wrap;html=1;aspect=fixed;shadow=0;" parent="1" vertex="1">
          <mxGeometry x="-2120" y="120" width="20" height="20" as="geometry" />
        </mxCell>
        <mxCell id="UYK4BgsfnKAOdERZ14Jn-36" style="edgeStyle=orthogonalEdgeStyle;shape=connector;curved=0;rounded=1;orthogonalLoop=1;jettySize=auto;html=1;exitX=1;exitY=0.5;exitDx=0;exitDy=0;entryX=0;entryY=0.5;entryDx=0;entryDy=0;strokeColor=default;align=center;verticalAlign=middle;fontFamily=Helvetica;fontSize=11;fontColor=default;labelBackgroundColor=default;startFill=0;endArrow=none;" parent="1" source="UYK4BgsfnKAOdERZ14Jn-33" target="UYK4BgsfnKAOdERZ14Jn-34" edge="1">
          <mxGeometry relative="1" as="geometry" />
        </mxCell>
        <mxCell id="UYK4BgsfnKAOdERZ14Jn-33" value="4" style="ellipse;whiteSpace=wrap;html=1;aspect=fixed;shadow=0;" parent="1" vertex="1">
          <mxGeometry x="-2080" y="120" width="20" height="20" as="geometry" />
        </mxCell>
        <mxCell id="UYK4BgsfnKAOdERZ14Jn-38" style="shape=connector;rounded=1;orthogonalLoop=1;jettySize=auto;html=1;exitX=0;exitY=0;exitDx=0;exitDy=0;entryX=1;entryY=1;entryDx=0;entryDy=0;strokeColor=default;align=center;verticalAlign=middle;fontFamily=Helvetica;fontSize=11;fontColor=default;labelBackgroundColor=default;startFill=0;endArrow=none;" parent="1" source="UYK4BgsfnKAOdERZ14Jn-34" target="UYK4BgsfnKAOdERZ14Jn-27" edge="1">
          <mxGeometry relative="1" as="geometry" />
        </mxCell>
        <mxCell id="UYK4BgsfnKAOdERZ14Jn-34" value="5" style="ellipse;whiteSpace=wrap;html=1;aspect=fixed;shadow=0;" parent="1" vertex="1">
          <mxGeometry x="-2040" y="120" width="20" height="20" as="geometry" />
        </mxCell>
      </root>
    </mxGraphModel>
  </diagram>
</mxfile>
